<?xml version="1.0" encoding="UTF-8" standalone="no"?>
<!-- Created with Inkscape (http://www.inkscape.org/) -->

<svg
   xmlns:dc="http://purl.org/dc/elements/1.1/"
   xmlns:cc="http://creativecommons.org/ns#"
   xmlns:rdf="http://www.w3.org/1999/02/22-rdf-syntax-ns#"
   xmlns:svg="http://www.w3.org/2000/svg"
   xmlns="http://www.w3.org/2000/svg"
   xmlns:sodipodi="http://sodipodi.sourceforge.net/DTD/sodipodi-0.dtd"
   xmlns:inkscape="http://www.inkscape.org/namespaces/inkscape"
   id="svg4155"
   version="1.1"
   inkscape:version="0.91 r13725"
   xml:space="preserve"
   width="482.224"
   height="148.27"
   viewBox="0 0 482.224 148.27"
   sodipodi:docname="logo_burger_small.svg"><metadata
     id="metadata4161"><rdf:RDF><cc:Work
         rdf:about=""><dc:format>image/svg+xml</dc:format><dc:type
           rdf:resource="http://purl.org/dc/dcmitype/StillImage" /><dc:title></dc:title></cc:Work></rdf:RDF></metadata><defs
     id="defs4159" /><sodipodi:namedview
     pagecolor="#ffffff"
     bordercolor="#666666"
     borderopacity="1"
     objecttolerance="10"
     gridtolerance="10"
     guidetolerance="10"
     inkscape:pageopacity="0"
     inkscape:pageshadow="2"
     inkscape:window-width="1366"
     inkscape:window-height="713"
     id="namedview4157"
     showgrid="false"
     inkscape:zoom="1.5283345"
     inkscape:cx="241"
     inkscape:cy="126.08053"
     inkscape:window-x="0"
     inkscape:window-y="27"
     inkscape:window-maximized="1"
     inkscape:current-layer="g4163" /><g
     id="g4163"
     inkscape:groupmode="layer"
     inkscape:label="ink_ext_XXXXXX"
     transform="matrix(1.25,0,0,-1.25,0,148.27)"><g
       id="g4288"
       transform="translate(0.08960324,-41.556432)"><path
         d="m 1.7077554,43.073453 33.9971936,0 c 17.264638,0 24.332633,5.54914 24.332633,18.164342 0,8.675853 -5.367265,13.418162 -11.80837,15.20983 6.708114,2.683633 8.766791,6.350167 8.766791,13.865112 0,9.749693 -7.066061,15.300773 -21.917945,15.300773 l -33.3703026,0 0,-11.5433 5.1873243,0 0,-39.362523 -5.1873243,0 0,-11.634234 z m 23.7057426,50.729748 5.636209,0 c 3.401461,0 5.907087,-2.416624 5.907087,-6.530108 0,-4.29536 -1.342783,-6.891924 -6.085093,-6.891924 l -5.458203,0 0,13.422032 z m 0,-39.095514 0,15.565842 6.88999,0 c 4.920315,0 7.514945,-3.310523 7.514945,-7.874826 0,-4.829378 -3.488529,-7.691016 -7.246001,-7.691016 l -7.158934,0 z m 36.860767,50.905823 0,-11.634238 5.007383,0 0,-22.097885 c 0,-20.310087 9.66456,-29.788902 27.736029,-30.324854 16.819623,0 25.679283,9.569752 25.679283,30.773738 l 0,21.739939 4.82938,0 0,11.5433 -26.482247,0 0,-11.810309 4.831317,0 0,-18.967303 c 0,-15.385902 -3.57947,-17.535517 -9.035739,-17.535517 -5.725211,0 -8.946731,3.043514 -8.946731,17.444579 l 0,19.32525 4.833247,0 0,11.5433 -28.451922,0 z m 66.829605,0 0,-11.721306 5.01126,0 0,-39.008446 -5.01126,0 0,-11.810305 28.89694,0 0,11.810305 -5.45627,0 0,13.867047 c 7.9619,0 8.94673,-1.965805 8.94673,-10.109575 0,-10.463651 5.63621,-16.639682 17.35364,-16.639682 9.93157,0 13.06409,6.889989 13.06409,14.313996 l 0,4.922251 -5.99609,0 0,-2.954511 c 0,-1.787799 -0.71589,-2.861639 -2.05674,-2.861639 -1.61173,0 -2.14575,2.238618 -2.14575,6.081224 0,6.444974 -5.5472,11.812239 -11.7213,12.706139 7.42594,1.073839 12.97315,5.99609 12.97315,12.973147 0,10.198578 -4.02642,18.431355 -24.78345,18.431355 l -29.07495,0 z m 23.44067,-11.634238 4.47143,0 c 5.1912,0 8.14377,-2.681698 8.14377,-7.961894 0,-4.74231 -3.40146,-7.244067 -8.58878,-7.244067 l -4.02642,0 0,15.205961 z m 86.86882,-50.905819 17.89346,0 0,22.366829 3.57947,0 0,9.575557 -29.70377,0 0,-9.575557 5.46014,0 0,-3.755538 c -1.34472,-2.325686 -3.49047,-4.384363 -8.59266,-4.384363 -7.78195,0 -12.25532,7.336939 -12.25532,16.459742 0,8.946732 5.01126,16.821558 12.25532,16.821558 5.2802,0 9.93157,-4.117354 10.20052,-11.36142 l 16.01472,0 0,26.393249 -13.33303,0 -1.87486,-6.444979 c -1.43179,1.431789 -4.47337,7.513009 -17.44652,7.513009 -13.95605,0 -27.46515,-13.416226 -27.46515,-32.921417 0,-19.32525 12.43526,-31.491566 28.09011,-31.491566 6.89192,0 12.43719,3.134451 14.40687,6.441105 l 2.7707,-5.636209 z m 25.05046,62.540057 0,-11.810309 5.63814,0 0,-38.83044 -5.63814,0 0,-11.899308 53.94546,0 0,20.223019 -15.47684,0 0,-8.323711 -14.31206,0 0,14.58294 16.99763,0 0,11.899308 -16.99763,0 0,12.348192 14.31206,0 0,-7.963829 15.47684,0 0,19.774138 -53.94546,0 z m 58.42076,0 0,-11.721306 5.00932,0 0,-39.008446 -5.00932,0 0,-11.810305 28.89694,0 0,11.810305 -5.45627,0 0,13.867047 c 7.95996,0 8.94674,-1.965805 8.94674,-10.109575 0,-10.463651 5.6362,-16.639682 17.35364,-16.639682 9.9335,0 13.06408,6.889989 13.06408,14.313996 l 0,4.922251 -5.99609,0 0,-2.954511 c 0,-1.787799 -0.71589,-2.861639 -2.05481,-2.861639 -1.61172,0 -2.14961,2.238618 -2.14961,6.081224 0,6.444974 -5.54721,11.812239 -11.71743,12.706139 7.424,1.073839 12.97121,5.99609 12.97121,12.973147 0,10.198578 -4.02642,18.431355 -24.78345,18.431355 l -29.07495,0 z m 23.44067,-11.634238 4.47337,0 c 5.18732,0 8.1399,-2.681698 8.1399,-7.961894 0,-4.74231 -3.39759,-7.244067 -8.58878,-7.244067 l -4.02449,0 0,15.205961"
         style="fill:#e7e8cc;fill-opacity:1;fill-rule:evenodd;stroke:none"
         id="path4533"
         inkscape:connector-curvature="0" /><path
         d="m 291.78386,138.9664 7.95415,-21.20786 -212.08049,0 7.95609,21.20786 -7.95609,21.20592 212.08049,0 -7.95415,-21.20592"
         style="fill:#e7e8cc;fill-opacity:1;fill-rule:evenodd;stroke:none"
         id="path4535"
         inkscape:connector-curvature="0" /><path
         d="m 383.8903,137.37789 -88.02972,0 1.78006,-4.74618 86.24966,0 0,4.74618 z m -295.950292,0 -88.02972527,0 0,-4.74618 86.24966627,0 1.780059,4.74618 z m -88.02972527,7.92126 86.24966627,0 1.780059,-4.74425 -88.02972527,0 0,4.74425 z m 297.73035727,0 86.24966,0 0,-4.74425 -88.02972,0 1.78006,4.74425"
         style="fill:#e7e8cc;fill-opacity:1;fill-rule:evenodd;stroke:none"
         id="path4547"
         inkscape:connector-curvature="0" /><g
         transform="matrix(1.9348468,0,0,1.9348468,-869.03135,-730.07198)"
         id="g4549"><text
           transform="matrix(1,0,0,-1,512.137,444.363)"
           style="font-variant:normal;font-weight:normal;font-size:12.03190041px;font-family:Bebas;-inkscape-font-specification:Bebas;writing-mode:lr-tb;fill:#49483e;fill-opacity:1;fill-rule:nonzero;stroke:none"
           id="text4551"><tspan
             x="0 4.9648614 11.510765 18.132843 24.815479 27.037161 34.231522 41.247166 47.433712 49.655392 54.321426 61.515785 68.531433"
             y="0"
             sodipodi:role="line"
             id="tspan4553">JOHN AND JANE</tspan></text>
</g></g></g></svg>