<?xml version="1.0" encoding="UTF-8" standalone="no"?>
<!-- Created with Inkscape (http://www.inkscape.org/) -->

<svg
   xmlns:dc="http://purl.org/dc/elements/1.1/"
   xmlns:cc="http://creativecommons.org/ns#"
   xmlns:rdf="http://www.w3.org/1999/02/22-rdf-syntax-ns#"
   xmlns:svg="http://www.w3.org/2000/svg"
   xmlns="http://www.w3.org/2000/svg"
   xmlns:sodipodi="http://sodipodi.sourceforge.net/DTD/sodipodi-0.dtd"
   xmlns:inkscape="http://www.inkscape.org/namespaces/inkscape"
   id="svg4155"
   version="1.1"
   inkscape:version="0.91 r13725"
   xml:space="preserve"
   width="482"
   height="286"
   viewBox="0 0 482 286"
   sodipodi:docname="logo_burguer.svg"><metadata
     id="metadata4161"><rdf:RDF><cc:Work
         rdf:about=""><dc:format>image/svg+xml</dc:format><dc:type
           rdf:resource="http://purl.org/dc/dcmitype/StillImage" /><dc:title></dc:title></cc:Work></rdf:RDF></metadata><defs
     id="defs4159" /><sodipodi:namedview
     pagecolor="#ffffff"
     bordercolor="#666666"
     borderopacity="1"
     objecttolerance="10"
     gridtolerance="10"
     guidetolerance="10"
     inkscape:pageopacity="0"
     inkscape:pageshadow="2"
     inkscape:window-width="1366"
     inkscape:window-height="713"
     id="namedview4157"
     showgrid="false"
     inkscape:zoom="1.044"
     inkscape:cx="305.38457"
     inkscape:cy="139.72756"
     inkscape:window-x="0"
     inkscape:window-y="27"
     inkscape:window-maximized="1"
     inkscape:current-layer="g4163" /><g
     id="g4163"
     inkscape:groupmode="layer"
     inkscape:label="ink_ext_XXXXXX"
     transform="matrix(1.25,0,0,-1.25,0,286)"><g
       id="g4818"
       transform="matrix(1.9348468,0,0,1.9348468,-869.03135,-730.07198)"><path
         d="m 450.03,399.59 17.571,0 c 8.923,0 12.576,2.868 12.576,9.388 0,4.484 -2.774,6.935 -6.103,7.861 3.467,1.387 4.531,3.282 4.531,7.166 0,5.039 -3.652,7.908 -11.328,7.908 l -17.247,0 0,-5.966 2.681,0 0,-20.344 -2.681,0 0,-6.013 z m 12.252,26.219 2.913,0 c 1.758,0 3.053,-1.249 3.053,-3.375 0,-2.22 -0.694,-3.562 -3.145,-3.562 l -2.821,0 0,6.937 z m 0,-20.206 0,8.045 3.561,0 c 2.543,0 3.884,-1.711 3.884,-4.07 0,-2.496 -1.803,-3.975 -3.745,-3.975 l -3.7,0 z m 19.051,26.31 0,-6.013 2.588,0 0,-11.421 c 0,-10.497 4.995,-15.396 14.335,-15.673 8.693,0 13.272,4.946 13.272,15.905 l 0,11.236 2.496,0 0,5.966 -13.687,0 0,-6.104 2.497,0 0,-9.803 c 0,-7.952 -1.85,-9.063 -4.67,-9.063 -2.959,0 -4.624,1.573 -4.624,9.016 l 0,9.988 2.498,0 0,5.966 -14.705,0 z m 34.54,0 0,-6.058 2.59,0 0,-20.161 -2.59,0 0,-6.104 14.935,0 0,6.104 -2.82,0 0,7.167 c 4.115,0 4.624,-1.016 4.624,-5.225 0,-5.408 2.913,-8.6 8.969,-8.6 5.133,0 6.752,3.561 6.752,7.398 l 0,2.544 -3.099,0 0,-1.527 c 0,-0.924 -0.37,-1.479 -1.063,-1.479 -0.833,0 -1.109,1.157 -1.109,3.143 0,3.331 -2.867,6.105 -6.058,6.567 3.838,0.555 6.705,3.099 6.705,6.705 0,5.271 -2.081,9.526 -12.809,9.526 l -15.027,0 z m 12.115,-6.013 2.311,0 c 2.683,0 4.209,-1.386 4.209,-4.115 0,-2.451 -1.758,-3.744 -4.439,-3.744 l -2.081,0 0,7.859 z m 44.897,-26.31 9.248,0 0,11.56 1.85,0 0,4.949 -15.352,0 0,-4.949 2.822,0 0,-1.941 c -0.695,-1.202 -1.804,-2.266 -4.441,-2.266 -4.022,0 -6.334,3.792 -6.334,8.507 0,4.624 2.59,8.694 6.334,8.694 2.729,0 5.133,-2.128 5.272,-5.872 l 8.277,0 0,13.641 -6.891,0 -0.969,-3.331 c -0.74,0.74 -2.312,3.883 -9.017,3.883 -7.213,0 -14.195,-6.934 -14.195,-17.015 0,-9.988 6.427,-16.276 14.518,-16.276 3.562,0 6.428,1.62 7.446,3.329 l 1.432,-2.913 z m 12.947,32.323 0,-6.104 2.914,0 0,-20.069 -2.914,0 0,-6.15 27.881,0 0,10.452 -7.999,0 0,-4.302 -7.397,0 0,7.537 8.785,0 0,6.15 -8.785,0 0,6.382 7.397,0 0,-4.116 7.999,0 0,10.22 -27.881,0 z m 30.194,0 0,-6.058 2.589,0 0,-20.161 -2.589,0 0,-6.104 14.935,0 0,6.104 -2.82,0 0,7.167 c 4.114,0 4.624,-1.016 4.624,-5.225 0,-5.408 2.913,-8.6 8.969,-8.6 5.134,0 6.752,3.561 6.752,7.398 l 0,2.544 -3.099,0 0,-1.527 c 0,-0.924 -0.37,-1.479 -1.062,-1.479 -0.833,0 -1.111,1.157 -1.111,3.143 0,3.331 -2.867,6.105 -6.056,6.567 3.837,0.555 6.704,3.099 6.704,6.705 0,5.271 -2.081,9.526 -12.809,9.526 l -15.027,0 z m 12.115,-6.013 2.312,0 c 2.681,0 4.207,-1.386 4.207,-4.115 0,-2.451 -1.756,-3.744 -4.439,-3.744 l -2.08,0 0,7.859"
         style="fill:#e7e8cc;fill-opacity:1;fill-rule:evenodd;stroke:none"
         id="path4533"
         inkscape:connector-curvature="0" /><path
         d="m 599.952,449.151 4.111,-10.961 -109.611,0 4.112,10.961 -4.112,10.96 109.611,0 -4.111,-10.96"
         style="fill:#e7e8cc;fill-opacity:1;fill-rule:evenodd;stroke:none"
         id="path4535"
         inkscape:connector-curvature="0" /><path
         d="m 500.934,378.694 2.958,0 0.186,1.302 c 0.642,-0.761 1.825,-1.554 3.532,-1.554 2.011,0 4.478,0.947 4.478,3.583 0,3.971 -6.692,3.567 -6.692,5.304 0,0.592 0.676,0.898 1.167,0.898 1.183,0 2.161,-0.71 2.161,-1.961 l 3.06,0 0,4.242 -2.907,0 -0.17,-1.421 c -0.674,1.268 -2.111,1.725 -3.531,1.725 -1.656,0 -4.022,-1.133 -4.022,-3.632 0,-4.311 6.489,-3.753 6.489,-5.072 0,-0.708 -0.845,-0.844 -1.436,-0.844 -0.71,0.034 -2.129,0.269 -2.129,1.69 l -3.144,0 0,-4.26 z m 11.999,11.814 0,-2.231 1.064,0 0,-7.335 -1.064,0 0,-2.248 5.611,0 0,2.248 -1.048,0 0,7.335 1.048,0 0,2.231 -5.611,0 z m 19.4,-2.18 0,2.18 -5.085,0 0,-2.18 1.148,0 0,-4.021 -4.141,6.201 -4.849,0 0,-2.18 0.979,0 0,-7.452 -0.996,0 0,-2.182 5.188,0 0,2.182 -1.302,0 0,4.258 4.31,-6.44 3.632,0 0,9.634 1.116,0 z m 9.785,-5.357 c -0.153,-0.17 -1.268,-1.656 -2.687,-1.656 -1.605,0 -2.468,1.503 -2.468,3.176 0,1.842 0.795,3.347 2.012,3.347 1.199,0 1.74,-1.031 1.791,-2.13 l 3.024,0 0,4.8 -2.653,0 -0.388,-0.947 c -0.153,0.203 -0.913,1.15 -2.602,1.15 -2.215,0 -5.139,-2.332 -5.139,-6.22 0,-3.767 2.384,-6.065 5.967,-6.065 2.214,0 3.971,1.114 5.12,2.382 l -1.977,2.163 z m 2.653,7.537 0,-2.231 1.064,0 0,-7.335 -1.064,0 0,-2.248 10.19,0 0,3.821 -2.923,0 0,-1.573 -2.705,0 0,2.755 3.211,0 0,2.248 -3.211,0 0,2.332 2.705,0 0,-1.505 2.923,0 0,3.736 -10.19,0 z m 17.22,-3.836 c 0.507,0.541 1.166,1.283 2.079,1.283 0.777,0 1.42,-0.252 1.42,-1.114 0,-1.048 -1.792,-1.758 -2.992,-2.822 -1.081,-0.862 -1.538,-1.351 -2.466,-2.872 l 0,-2.453 9.125,0 0,3.601 -2.839,0 0,-1.353 -2.975,0 c 0.389,0.676 1.724,1.743 2.535,2.267 1.792,1.166 2.704,1.84 2.704,3.783 0,2.282 -1.775,3.702 -4.022,3.702 -1.69,0 -3.211,-0.727 -4.394,-2.096 l 1.825,-1.926 z m 12.692,-8.179 c 3.059,0 4.765,2.299 4.765,6.049 0,3.735 -1.537,6.186 -4.85,6.186 -2.806,0 -4.766,-2.485 -4.766,-6.068 0,-4.157 2.028,-6.167 4.851,-6.167 z m 0,2.619 c -0.677,0 -1.505,1.368 -1.505,3.548 0,2.064 0.778,3.363 1.404,3.346 0.828,0 1.469,-1.452 1.469,-3.464 0,-2.062 -0.591,-3.43 -1.368,-3.43 z m 6.218,5.306 1.689,0.795 0,-6.271 -1.689,0 0,-2.248 6.76,0 0,2.248 -1.572,0 0,9.566 -3.007,0 c -1.234,-1.469 -1.995,-1.74 -2.959,-2.214 l 0.778,-1.876 z m 11.205,1.571 4.545,0 0,2.519 -6.693,0 -1.029,-5.814 2.162,-0.963 c 0.356,0.372 0.813,0.777 1.589,0.777 0.964,0 1.725,-0.742 1.725,-1.639 0,-0.979 -0.729,-1.69 -1.861,-1.69 -0.978,0 -1.707,0.575 -2.364,1.251 l -1.843,-1.909 c 0.693,-1.047 2.484,-2.044 4.191,-2.044 2.45,0 5.053,1.434 5.053,4.274 0,2.619 -1.959,4.005 -3.937,4.005 -0.827,0 -1.487,-0.186 -1.825,-0.405 l 0.287,1.638"
         style="fill:#e7e8cc;fill-opacity:1;fill-rule:evenodd;stroke:none"
         id="path4537"
         inkscape:connector-curvature="0" /><path
         d="m 462.013,392.829 13.889,0 c 1.063,0 1.979,-0.509 2.54,-1.414 l 2.978,-4.814 c 0.097,-0.155 0.177,-0.314 0.244,-0.478 l 11.832,0 0,-2.186 -11.831,0 c -0.066,-0.163 -0.148,-0.324 -0.245,-0.481 l -2.978,-4.809 c -0.561,-0.907 -1.477,-1.416 -2.54,-1.416 l -13.889,0 c -1.645,0 -2.987,1.343 -2.987,2.986 l 0,9.625 c 0,1.645 1.342,2.987 2.987,2.987 z m 1.9,-2.242 9.892,0 c 0.36,0 0.656,-0.295 0.656,-0.655 l 0,-0.002 c 0,-0.362 -0.296,-0.656 -0.656,-0.656 l -9.892,0 c -0.36,0 -0.656,0.294 -0.656,0.656 l 0,0.002 c 0,0.36 0.296,0.655 0.656,0.655 z m -1.573,-2.424 13.037,0 c 0.36,0 0.657,-0.295 0.657,-0.655 l 0,0 c 0,-0.361 -0.297,-0.657 -0.657,-0.657 l -13.037,0 c -0.358,0 -0.654,0.296 -0.654,0.657 l 0,0 c 0,0.36 0.294,0.655 0.654,0.655 z m 0,-4.845 13.037,0 c 0.36,0 0.657,-0.295 0.657,-0.657 0,-0.36 -0.297,-0.655 -0.657,-0.655 l -13.037,0 c -0.36,0 -0.654,0.295 -0.654,0.655 0,0.362 0.294,0.657 0.654,0.657 z m 0,2.423 14.609,0 c 0.361,0 0.656,-0.297 0.656,-0.657 l 0,0 c 0,-0.359 -0.295,-0.654 -0.656,-0.654 l -14.609,0 c -0.358,0 -0.654,0.295 -0.654,0.654 l 0,0 c 0,0.363 0.294,0.657 0.654,0.657 z m 1.573,-4.845 9.892,0 c 0.36,0 0.656,-0.295 0.656,-0.656 0,-0.36 -0.296,-0.657 -0.656,-0.657 l -9.892,0 c -0.36,0 -0.656,0.297 -0.656,0.657 0,0.361 0.296,0.656 0.656,0.656"
         style="fill:#e7e8cc;fill-opacity:1;fill-rule:evenodd;stroke:none"
         id="path4539"
         inkscape:connector-curvature="0" /><path
         d="m 636.502,392.829 -13.888,0 c -1.065,0 -1.979,-0.509 -2.54,-1.414 l -2.979,-4.814 c -0.097,-0.155 -0.177,-0.314 -0.243,-0.478 l -11.831,0 0,-2.186 11.83,0 c 0.066,-0.163 0.147,-0.324 0.244,-0.481 l 2.979,-4.809 c 0.559,-0.907 1.475,-1.416 2.54,-1.416 l 13.888,0 c 1.645,0 2.987,1.343 2.987,2.986 l 0,9.625 c 0,1.645 -1.342,2.987 -2.987,2.987 z m -1.901,-2.242 -9.891,0 c -0.361,0 -0.656,-0.295 -0.656,-0.655 l 0,-0.002 c 0,-0.362 0.295,-0.656 0.656,-0.656 l 9.891,0 c 0.361,0 0.656,0.294 0.656,0.656 l 0,0.002 c 0,0.36 -0.295,0.655 -0.656,0.655 z m 1.572,-2.424 -13.035,0 c -0.361,0 -0.656,-0.295 -0.656,-0.655 l 0,0 c 0,-0.361 0.296,-0.657 0.656,-0.657 l 13.035,0 c 0.362,0 0.657,0.296 0.657,0.657 l 0,0 c 0,0.36 -0.294,0.655 -0.657,0.655 z m 0,-4.845 -13.035,0 c -0.361,0 -0.656,-0.295 -0.656,-0.657 0,-0.36 0.296,-0.655 0.656,-0.655 l 13.035,0 c 0.363,0 0.657,0.295 0.657,0.655 0,0.362 -0.294,0.657 -0.657,0.657 z m 0,2.423 -14.606,0 c -0.362,0 -0.656,-0.297 -0.656,-0.657 l 0,0 c 0,-0.359 0.296,-0.654 0.656,-0.654 l 14.606,0 c 0.362,0 0.657,0.295 0.657,0.654 l 0,0 c 0,0.363 -0.294,0.657 -0.657,0.657 z m -1.572,-4.845 -9.891,0 c -0.361,0 -0.656,-0.295 -0.656,-0.656 0,-0.36 0.295,-0.657 0.656,-0.657 l 9.891,0 c 0.361,0 0.656,0.297 0.656,0.657 0,0.361 -0.295,0.656 -0.656,0.656"
         style="fill:#e7e8cc;fill-opacity:1;fill-rule:evenodd;stroke:none"
         id="path4541"
         inkscape:connector-curvature="0" /><path
         d="m 465.554,467.825 c 1.508,0 2.731,-1.222 2.731,-2.73 0,-1.509 -1.223,-2.73 -2.731,-2.73 -1.508,0 -2.73,1.221 -2.73,2.73 0,1.508 1.222,2.73 2.73,2.73"
         style="fill:#e7e8cc;fill-opacity:1;fill-rule:evenodd;stroke:none"
         id="path4543"
         inkscape:connector-curvature="0" /><path
         d="m 628.182,467.825 c 1.507,0 2.73,-1.222 2.73,-2.73 0,-1.509 -1.223,-2.73 -2.73,-2.73 -1.509,0 -2.73,1.221 -2.73,2.73 0,1.508 1.221,2.73 2.73,2.73"
         style="fill:#e7e8cc;fill-opacity:1;fill-rule:evenodd;stroke:none"
         id="path4545"
         inkscape:connector-curvature="0" /><path
         d="m 647.556,448.33 -45.497,0 0.92,-2.453 44.577,0 0,2.453 z m -152.958,0 -45.497,0 0,-2.453 44.577,0 0.92,2.453 z m -45.497,4.094 44.577,0 0.92,-2.452 -45.497,0 0,2.452 z m 153.878,0 44.577,0 0,-2.452 -45.497,0 0.92,2.452"
         style="fill:#e7e8cc;fill-opacity:1;fill-rule:evenodd;stroke:none"
         id="path4547"
         inkscape:connector-curvature="0" /><g
         id="g4549"><text
           transform="matrix(1,0,0,-1,512.137,444.363)"
           style="font-variant:normal;font-weight:normal;font-size:12.03190041px;font-family:Bebas;-inkscape-font-specification:Bebas;writing-mode:lr-tb;fill:#49483e;fill-opacity:1;fill-rule:nonzero;stroke:none"
           id="text4551"><tspan
             x="0 4.9648614 11.510765 18.132843 24.815479 27.037161 34.231522 41.247166 47.433712 49.655392 54.321426 61.515785 68.531433"
             y="0"
             sodipodi:role="line"
             id="tspan4553">JOHN AND JANE</tspan></text>
</g><g
         id="g4555"><text
           transform="matrix(0.893994,0.448079,0.448079,-0.893994,481.187,466.703)"
           style="font-variant:normal;font-weight:normal;font-size:18.89050102px;font-family:Bebas;-inkscape-font-specification:Bebas;writing-mode:lr-tb;fill:#e7e8cc;fill-opacity:1;fill-rule:nonzero;stroke:none"
           id="text4557"><tspan
             x="0"
             y="0"
             id="tspan4559">P</tspan></text>
<text
           transform="matrix(0.943083,0.332558,0.332558,-0.943083,492.132,471.993)"
           style="font-variant:normal;font-weight:normal;font-size:18.89050293px;font-family:Bebas;-inkscape-font-specification:Bebas;writing-mode:lr-tb;fill:#e7e8cc;fill-opacity:1;fill-rule:nonzero;stroke:none"
           id="text4561"><tspan
             x="0"
             y="0"
             id="tspan4563">R</tspan></text>
<text
           transform="matrix(0.970683,0.240363,0.240363,-0.970683,504.243,476.082)"
           style="font-variant:normal;font-weight:normal;font-size:18.89049911px;font-family:Bebas;-inkscape-font-specification:Bebas;writing-mode:lr-tb;fill:#e7e8cc;fill-opacity:1;fill-rule:nonzero;stroke:none"
           id="text4565"><tspan
             x="0"
             y="0"
             id="tspan4567">E</tspan></text>
<text
           transform="matrix(0.988185,0.153269,0.153269,-0.988185,514.956,478.729)"
           style="font-variant:normal;font-weight:normal;font-size:18.89050865px;font-family:Bebas;-inkscape-font-specification:Bebas;writing-mode:lr-tb;fill:#e7e8cc;fill-opacity:1;fill-rule:nonzero;stroke:none"
           id="text4569"><tspan
             x="0"
             y="0"
             id="tspan4571">M</tspan></text>
<text
           transform="matrix(0.99636,0.0852415,0.0852415,-0.99636,530.877,480.944)"
           style="font-variant:normal;font-weight:normal;font-size:18.89049339px;font-family:Bebas;-inkscape-font-specification:Bebas;writing-mode:lr-tb;fill:#e7e8cc;fill-opacity:1;fill-rule:nonzero;stroke:none"
           id="text4573"><tspan
             x="0"
             y="0"
             id="tspan4575">I</tspan></text>
<text
           transform="matrix(0.999498,0.0316816,0.0316816,-0.999498,537.644,481.527)"
           style="font-variant:normal;font-weight:normal;font-size:18.89049911px;font-family:Bebas;-inkscape-font-specification:Bebas;writing-mode:lr-tb;fill:#e7e8cc;fill-opacity:1;fill-rule:nonzero;stroke:none"
           id="text4577"><tspan
             x="0"
             y="0"
             id="tspan4579">U</tspan></text>
<text
           transform="matrix(0.998927,-0.0463062,-0.0463062,-0.998927,550.019,481.892)"
           style="font-variant:normal;font-weight:normal;font-size:18.8904953px;font-family:Bebas;-inkscape-font-specification:Bebas;writing-mode:lr-tb;fill:#e7e8cc;fill-opacity:1;fill-rule:nonzero;stroke:none"
           id="text4581"><tspan
             x="0"
             y="0"
             id="tspan4583">M</tspan></text>
<text
           transform="matrix(0.987311,-0.158801,-0.158801,-0.987311,569.241,480.697)"
           style="font-variant:normal;font-weight:normal;font-size:18.89050674px;font-family:Bebas;-inkscape-font-specification:Bebas;writing-mode:lr-tb;fill:#e7e8cc;fill-opacity:1;fill-rule:nonzero;stroke:none"
           id="text4585"><tspan
             x="0"
             y="0"
             id="tspan4587">M</tspan></text>
<text
           transform="matrix(0.968053,-0.250745,-0.250745,-0.968053,585.149,477.921)"
           style="font-variant:normal;font-weight:normal;font-size:18.89049721px;font-family:Bebas;-inkscape-font-specification:Bebas;writing-mode:lr-tb;fill:#e7e8cc;fill-opacity:1;fill-rule:nonzero;stroke:none"
           id="text4589"><tspan
             x="0"
             y="0"
             id="tspan4591">E</tspan></text>
<text
           transform="matrix(0.938967,-0.344007,-0.344007,-0.938967,595.856,475.112)"
           style="font-variant:normal;font-weight:normal;font-size:18.89049911px;font-family:Bebas;-inkscape-font-specification:Bebas;writing-mode:lr-tb;fill:#e7e8cc;fill-opacity:1;fill-rule:nonzero;stroke:none"
           id="text4593"><tspan
             x="0"
             y="0"
             id="tspan4595">A</tspan></text>
<text
           transform="matrix(0.897285,-0.441452,-0.441452,-0.897285,606.225,471.294)"
           style="font-variant:normal;font-weight:normal;font-size:18.89050293px;font-family:Bebas;-inkscape-font-specification:Bebas;writing-mode:lr-tb;fill:#e7e8cc;fill-opacity:1;fill-rule:nonzero;stroke:none"
           id="text4597"><tspan
             x="0"
             y="0"
             id="tspan4599">T</tspan></text>
</g></g></g></svg>